<svg id="Layer_1" data-name="Layer 1" xmlns="http://www.w3.org/2000/svg" viewBox="0 0 798.89 479.34"><defs><style>.cls-1{fill:#fff;stroke:#000;stroke-width:10.75px;}</style></defs><title>Soundcloud2</title><rect id="Rectangle" class="cls-1" x="5.38" y="5.38" width="788.14" height="468.58"/><path d="M540.9,217.51c1.18-.37,2.22-.66,3.24-1a52.81,52.81,0,0,1,69.55,54.89,52.39,52.39,0,0,1-43.53,47.07,53,53,0,0,1-8.32.71q-72.37,0-144.75,0c-.67,0-1.34,0-2,0a6.08,6.08,0,0,1-5.81-5.82c-.06-.78,0-1.56,0-2.34q0-81.92,0-163.85c0-.34,0-.67,0-1-.33-3.41,1.35-5.46,4.4-6.67a92.16,92.16,0,0,1,15.37-4.6,90,90,0,0,1,29.65-1.37c26.08,3.32,47.31,15.34,63.4,36.15a90.06,90.06,0,0,1,18.17,43.71C540.39,214.66,540.64,216,540.9,217.51Z"/><path d="M391.19,217.14q.61-28,1.21-55.94c.06-2.79.08-5.58.13-8.38a20.92,20.92,0,0,1,.09-2.34,5.76,5.76,0,0,1,11.48.16c.07,3.13.25,6.25.31,9.38q.56,27.14,1.09,54.27c.38,17.75.81,35.51,1.18,53.26.06,2.68-.06,5.36-.21,8-.38,6.91-.82,13.82-1.25,20.73q-.5,8-1,16A16,16,0,0,1,404,314a5.87,5.87,0,0,1-5.58,4.89,6,6,0,0,1-5.77-4.7,11.33,11.33,0,0,1-.15-1.67c-.79-14-1.61-28.1-2.32-42.15-.15-3,.11-6,.16-9q.43-22.11.85-44.22Z"/><path d="M387.39,235.56c.21,10.83.42,20,.55,29.14.05,3.79,0,7.59-.15,11.38-.6,12.27-1.27,24.53-2,36.79a9.54,9.54,0,0,1-.69,3.23,5.32,5.32,0,0,1-10-1.29,57.13,57.13,0,0,1-.49-6q-.84-18.57-1.62-37.14c-.12-2.9,0-5.8,0-8.71q.62-33.32,1.26-66.65.31-16.58.61-33.16a26.68,26.68,0,0,1,.11-2.68,5.42,5.42,0,0,1,5-4.95,5.55,5.55,0,0,1,5.66,4.69,12.82,12.82,0,0,1,.12,2q.44,22.27.88,44.54C386.94,216.92,387.2,227.08,387.39,235.56Z"/><path d="M355.53,246q.45-19.76.91-39.52.32-13.4.68-26.79a12.24,12.24,0,0,1,.19-2.33,5,5,0,0,1,5.4-4,4.77,4.77,0,0,1,4.51,4.56c.21,2.45.3,4.91.37,7.36q.75,27.13,1.48,54.25c.24,8.82.6,17.64.67,26.46,0,5.57-.3,11.16-.6,16.73-.53,10-1.16,20.06-1.76,30.1a17.74,17.74,0,0,1-.19,2,5,5,0,0,1-9.69.76,8.92,8.92,0,0,1-.37-2.3c-.28-5.24-.51-10.48-.78-15.73-.42-8.14-1-16.28-1.22-24.42-.18-6.36.06-12.73.15-19.09,0-2.68.18-5.36.28-8Z"/><path d="M337.73,244.37q.52-18.41,1-36.83.41-15.23.78-30.47a26.49,26.49,0,0,1,.11-2.68,4.67,4.67,0,0,1,9.24-.31,15,15,0,0,1,.14,2.34q.73,25.44,1.46,50.89c.39,13.28.83,26.56,1.2,39.84.07,2.56,0,5.14-.16,7.7-.64,10.7-1.33,21.39-2,32.08-.15,2.34-.3,4.68-.51,7a7.45,7.45,0,0,1-.5,2.26A4.57,4.57,0,0,1,344,319a4.79,4.79,0,0,1-4.23-3.71,8.43,8.43,0,0,1-.14-1.33q-.63-10.7-1.26-21.4c-.38-6.58-.79-13.15-1.07-19.73-.14-3.12-.07-6.25,0-9.37.14-6.36.34-12.72.52-19.08Z"/><path d="M320.36,235.35q.88-30.81,1.76-61.63a14.31,14.31,0,0,1,.11-2,4.29,4.29,0,0,1,8.39-.41,13.83,13.83,0,0,1,.27,3q.48,15.41.93,30.81.66,21.43,1.33,42.87c.18,5.92.43,11.83.53,17.75.06,3.57,0,7.15-.23,10.71-.73,11.25-1.57,22.5-2.36,33.75-.09,1.34-.1,2.68-.23,4a7.66,7.66,0,0,1-.51,2.26A4.2,4.2,0,0,1,326,319a4.36,4.36,0,0,1-3.75-3.35,10.27,10.27,0,0,1-.16-1.66c-.65-10.7-1.16-21.41-2-32.1a249.25,249.25,0,0,1-.19-29.8c.23-5.58.28-11.17.41-16.75Z"/><path d="M303.28,225.66c.3-10.45.6-21.73.94-33,.16-5.47.36-10.94.57-16.41a6.89,6.89,0,0,1,.31-2,3.86,3.86,0,0,1,3.85-2.66,3.75,3.75,0,0,1,3.51,2.66,9.17,9.17,0,0,1,.35,2.63q1.11,32.15,2.2,64.3c.29,8.37.59,16.74,1,25.11.24,5-.52,10-.76,15-.2,4.24-.67,8.46-1,12.69-.49,6.68-1,13.37-1.44,20.05a9.1,9.1,0,0,1-.27,2,3.92,3.92,0,0,1-7.62-.27,7.34,7.34,0,0,1-.16-1.33q-.7-10.87-1.39-21.73c-.43-6.58-1.07-13.14-1.25-19.73-.18-6.36.07-12.73.21-19.09.11-5,.31-10,.48-15.07C303,234.75,303.11,230.62,303.28,225.66Z"/><path d="M296.82,230.53c.47,12.38,1,24.75,1.39,37.14a98.35,98.35,0,0,1-.4,10c-.56,7.79-1.2,15.57-1.81,23.36q-.53,6.67-1.1,13.34a11.41,11.41,0,0,1-.26,2,3.6,3.6,0,0,1-3.46,2.64,3.44,3.44,0,0,1-3.26-2.43,9.8,9.8,0,0,1-.42-2.3c-1-13.8-2-27.6-2.77-41.42-.27-4.78,0-9.59.14-14.39.34-10.48.77-21,1.15-31.45q.64-17.4,1.27-34.8c.09-2.57.11-5.13.23-7.7a11.82,11.82,0,0,1,.45-3,3.35,3.35,0,0,1,3.35-2.3,3.51,3.51,0,0,1,3.35,2.75,9.59,9.59,0,0,1,.17,1.66c.16,3.34.33,6.69.47,10q.61,14.38,1.19,28.77c.11,2.68.19,5.35.28,8Z"/><path d="M279.18,237.89c.51,9.81,1,19.62,1.5,29.44a53.12,53.12,0,0,1-.13,6.69c-.75,9.35-1.57,18.69-2.36,28-.34,4-.63,8-1,12a12.22,12.22,0,0,1-.41,2.63,3.21,3.21,0,0,1-3,2.27,3.38,3.38,0,0,1-3.11-2.6,16.32,16.32,0,0,1-.23-2.33c-1-13.69-2.1-27.38-3.05-41.08a80.93,80.93,0,0,1,.06-9c.3-6.92.7-13.83,1-20.74q1-21.58,2-43.16a10,10,0,0,1,.1-1.33,3.18,3.18,0,0,1,6.3-.24,12.6,12.6,0,0,1,.25,2.32q.28,4.85.53,9.7.72,13.71,1.42,27.43Z"/><path d="M250.15,270.26c.17-2.61.28-4.85.46-7.07q1.31-16.19,2.66-32.38c.13-1.56.26-3.12.49-4.66a2.76,2.76,0,0,1,2.63-2.58,2.71,2.71,0,0,1,2.89,2.26,15.09,15.09,0,0,1,.37,2.31q1.14,12.34,2.25,24.68c.45,4.89.94,9.78,1.34,14.68a28.78,28.78,0,0,1,0,4.68c-.57,6.9-1.21,13.79-1.81,20.69-.55,6.34-1.08,12.68-1.64,19a37.8,37.8,0,0,1-.53,4.32,2.59,2.59,0,0,1-2.85,2.27,2.69,2.69,0,0,1-2.65-2.52c-.21-1.32-.33-2.66-.43-4q-1.15-15-2.27-30.06-.39-5.18-.79-10.35C250.23,271,250.17,270.42,250.15,270.26Z"/><path d="M233.12,270.08c.27-3.6.52-7,.8-10.49q.91-11.34,1.84-22.68c.35-4.22.73-8.44,1.09-12.67a12.89,12.89,0,0,1,.19-1.66,2.46,2.46,0,0,1,2.3-2.06,2.38,2.38,0,0,1,2.43,1.89,21.05,21.05,0,0,1,.45,3q1.14,12.66,2.26,25.33c.52,5.78,1.08,11.55,1.57,17.33a21,21,0,0,1,0,3.65c-.76,8.44-1.56,16.88-2.35,25.32-.5,5.33-1,10.66-1.49,16a20.29,20.29,0,0,1-.48,3,2.38,2.38,0,0,1-4.63-.06,45.32,45.32,0,0,1-.58-4.64q-1.66-19.84-3.3-39.68C233.18,271,233.15,270.48,233.12,270.08Z"/><path d="M229.11,270c-.35,3.48-.69,7-1.06,10.59q-1.19,11.49-2.39,23c-.3,2.89-.55,5.78-.87,8.66a11.75,11.75,0,0,1-.56,2.61,1.8,1.8,0,0,1-1.87,1.15,1.94,1.94,0,0,1-1.84-1.22,5.51,5.51,0,0,1-.29-1.63c-.41-4.11-.81-8.22-1.19-12.33q-1.31-14.17-2.58-28.34a25.19,25.19,0,0,1-.05-4.34c.74-8.67,1.55-17.34,2.33-26,.49-5.45,1-10.89,1.44-16.34a14.63,14.63,0,0,1,.25-2,2.18,2.18,0,0,1,1.93-1.59,2,2,0,0,1,2,1.47,15.91,15.91,0,0,1,.48,2.63q1.48,15,2.92,30c.32,3.22.68,6.44,1,9.66C228.89,267.22,229,268.56,229.11,270Z"/><path d="M212.18,269.85l-.25,2-3.76,29.57c-.24,1.88-.45,3.77-.73,5.65-.21,1.39-.8,2-1.75,2.12s-1.79-.64-2-2.23c-.53-4.32-1-8.65-1.47-13-.82-7.32-1.65-14.64-2.44-22a17.33,17.33,0,0,1-.07-3.67q1.89-17.65,3.86-35.29a10.18,10.18,0,0,1,.5-2.27,1.35,1.35,0,0,1,1.6-.91,2.38,2.38,0,0,1,1.31.86,3.53,3.53,0,0,1,.47,1.57q1.39,11,2.73,21.94.85,6.81,1.69,13.63C212,268.49,212.08,269.15,212.18,269.85Z"/><path d="M195.07,270.27c-.32,2-.62,4-.93,6q-1.27,7.93-2.55,15.86a9.46,9.46,0,0,1-.35,1.63,1.57,1.57,0,0,1-1.5,1.13,1.46,1.46,0,0,1-1.52-1.08,18.5,18.5,0,0,1-.53-2.62c-.53-3.87-1-7.74-1.55-11.61-.42-3.21-1.17-6.42-1.18-9.62s.74-6.42,1.15-9.63c.51-4,1-8,1.55-12a23.15,23.15,0,0,1,.49-2.63,1.51,1.51,0,0,1,1.44-1.19,1.65,1.65,0,0,1,1.73,1.27,15.43,15.43,0,0,1,.29,1.65q1.26,7.93,2.51,15.87c.24,1.54.49,3.09.71,4.63C194.94,268.75,195,269.53,195.07,270.27Z"/></svg>